<svg xmlns="http://www.w3.org/2000/svg" viewBox="0 0 171.952 36.49"><defs><style>.cls-1{fill:#1d1d1b;}</style></defs><g id="Layer_2" data-name="Layer 2"><g id="Layer_1-2" data-name="Layer 1"><polygon class="cls-1" points="167.046 24.442 159.085 18.675 151.168 24.442 154.18 15.104 146.262 9.338 156.073 9.338 159.085 0 162.141 9.338 171.952 9.338 163.991 15.104 167.046 24.442"/><path class="cls-1" d="M0,19.536A5.13,5.13,0,0,1,5.293,14.2a5.12,5.12,0,0,1,5.25,5.336v1.119H7.4V19.536a2.009,2.009,0,0,0-2.108-2.2,2.021,2.021,0,0,0-2.152,2.2V31.154a2.021,2.021,0,0,0,2.152,2.195A2.009,2.009,0,0,0,7.4,31.154V27.023H4.906v-2.8h5.637v6.928a5.12,5.12,0,0,1-5.25,5.336A5.13,5.13,0,0,1,0,31.154Z"/><path class="cls-1" d="M18.632,24.183c1.851-.172,2.152-1.377,2.152-3.442,0-2.023-.3-3.184-2.152-3.357V14.372q5.293.194,5.293,6.455c0,2.539-.731,4.346-2.711,5.465l3.4,10.026H21.257l-2.625-8.477Zm-2.151,0h2.151v3.658l-.3-.9h-1.85v9.381H13.34V14.372h5.292v3.012a2.272,2.272,0,0,0-.559-.043H16.481Z"/><path class="cls-1" d="M36.619,31.37a5.1,5.1,0,1,1-10.2,0v-17h3.141v16.7c0,1.549.861,2.281,1.98,2.281,1.075,0,1.936-.732,1.936-2.281v-16.7h3.141Z"/><path class="cls-1" d="M44.752,24.786c2.023-.215,2.066-1.678,2.066-3.7,0-1.936,0-3.528-2.066-3.744V14.372a4.836,4.836,0,0,1,3.572,1.549c1.076,1.162,1.42,2.539,1.42,5.164a7.935,7.935,0,0,1-.861,4.389,4.761,4.761,0,0,1-4.131,2.281Zm-2.065,0h2.065v2.969H42.687v8.563H39.545V14.372h5.207v2.969H42.687Z"/><path class="cls-1" d="M57.188,33.349A2.01,2.01,0,0,0,59.3,31.154V19.536a2.01,2.01,0,0,0-2.109-2.2V14.2a5.12,5.12,0,0,1,5.25,5.336V31.154a5.12,5.12,0,0,1-5.25,5.336Zm-2.151-2.195a2.02,2.02,0,0,0,2.151,2.195V36.49A5.13,5.13,0,0,1,51.9,31.154V19.536A5.13,5.13,0,0,1,57.188,14.2v3.141a2.02,2.02,0,0,0-2.151,2.2Z"/><path class="cls-1" d="M70.7,19.536a5.271,5.271,0,1,1,10.542,0v1.119H78.1V19.536a2.131,2.131,0,1,0-4.26,0V31.154a2.131,2.131,0,1,0,4.26,0V27.023h-2.5v-2.8h5.637v6.928a5.271,5.271,0,1,1-10.542,0Z"/><path class="cls-1" d="M88.816,20.7h0V14.372h1.291l4.905,21.946H91.871l-.9-4.733H88.816V28.659h1.549Zm0,0h-.043l-1.549,7.961h1.592v2.926H86.664l-.9,4.733H82.619l4.906-21.946h1.291Z"/><polygon class="cls-1" points="96.561 14.372 99.703 14.372 99.703 33.177 105.942 33.177 105.942 36.318 96.561 36.318 96.561 14.372"/><path class="cls-1" d="M113.128,24.786c2.023-.215,2.066-1.678,2.066-3.7,0-1.936,0-3.528-2.066-3.744V14.372a5.006,5.006,0,0,1,3.615,1.549c1.076,1.162,1.42,2.539,1.42,5.164a7.922,7.922,0,0,1-.9,4.389,4.761,4.761,0,0,1-4.131,2.281Zm-2.022,0h2.022v2.969h-2.022v8.563h-3.141V14.372h5.163v2.969h-2.022Z"/><path class="cls-1" d="M125.306,20.7h-.043V14.372H126.6L131.5,36.318h-3.142l-.946-4.733h-2.152V28.659h1.592L125.306,20.7Zm-.043-8.3V10.241a11.938,11.938,0,0,0,2.367.689,1.3,1.3,0,0,0,1.334-1.377h1.592c-.387,1.893-1.162,3.4-3.141,3.4A8.782,8.782,0,0,1,125.263,12.393Zm0,8.305h-.043l-1.506,7.961h1.549v2.926h-2.108l-.947,4.733h-3.141l4.905-21.946h1.291V20.7Zm0-10.457v2.152a13.149,13.149,0,0,0-2.281-.646,1.255,1.255,0,0,0-1.334,1.377h-1.592c.388-1.893,1.162-3.442,3.1-3.442A7.712,7.712,0,0,1,125.263,10.241Z"/><path class="cls-1" d="M138.129,33.349h0a2.01,2.01,0,0,0,2.109-2.195V19.536a2.01,2.01,0,0,0-2.109-2.2h0V14.2h0a5.12,5.12,0,0,1,5.25,5.336V31.154a5.12,5.12,0,0,1-5.25,5.336h0Zm-2.151-2.195a2.02,2.02,0,0,0,2.151,2.195V36.49a5.13,5.13,0,0,1-5.293-5.336V19.536a5.13,5.13,0,0,1,5.293-5.336v3.141a2.02,2.02,0,0,0-2.151,2.2Z"/></g></g></svg>